<?xml version="1.0" encoding="UTF-8"?>
<!DOCTYPE svg PUBLIC "-//W3C//DTD SVG 1.1//EN" "http://www.w3.org/Graphics/SVG/1.1/DTD/svg11.dtd">
<!-- Creator: CorelDRAW 2020 (64-Bit) -->
<svg xmlns="http://www.w3.org/2000/svg" xml:space="preserve" width="8.26772in" height="11.6929in" version="1.1" style="shape-rendering:geometricPrecision; text-rendering:geometricPrecision; image-rendering:optimizeQuality; fill-rule:evenodd; clip-rule:evenodd"
viewBox="0 0 8267.72 11692.91"
 xmlns:xlink="http://www.w3.org/1999/xlink"
 xmlns:xodm="http://www.corel.com/coreldraw/odm/2003">
 <defs>
  <style type="text/css">
   <![CDATA[
    .str0 {stroke:#373435;stroke-width:6.94;stroke-miterlimit:2.61313}
    .str1 {stroke:#EE9583;stroke-width:137.49;stroke-linecap:round;stroke-linejoin:round;stroke-miterlimit:2.61313}
    .fil6 {fill:none}
    .fil2 {fill:#FEFEFE}
    .fil3 {fill:#373435}
    .fil7 {fill:#593F86}
    .fil0 {fill:#A570FF}
    .fil4 {fill:#A570FF}
    .fil5 {fill:#EE9583}
    .fil1 {fill:#FFC6B7}
    .fil8 {fill:#FFC6B7}
   ]]>
  </style>
    <clipPath id="id0">
     <path d="M3117.07 1734.37c230.83,946.74 1486.96,693.27 2907.94,701.16 546.15,55.96 782.31,641.8 0,742.41l0 556.83c123.73,1365.23 -1253.85,1177.12 -2907.94,1177.12l0 -3177.51z"/>
    </clipPath>
 </defs>
 <g id="Layer_x0020_1">
  <metadata id="CorelCorpID_0Corel-Layer"/>
  <g id="_2715430816560">
   <path class="fil0" d="M6832.74 5766.06l-5691.8 0 730.35 -3576.34c450.47,-2205.83 3723.54,-2408.78 4217.76,-19.33l743.7 3595.67z"/>
   <path class="fil1" d="M3117.07 1734.37c230.83,946.74 1486.96,693.27 2907.94,701.16 546.15,55.96 782.31,641.8 0,742.41l0 556.83c123.73,1365.23 -1253.85,1177.12 -2907.94,1177.12l0 -3177.51z"/>
   <g style="clip-path:url(#id0)">
    <g>
     <path id="1" class="fil2" d="M4081.88 3565.54l562.69 0c225.67,0 345.98,-144.02 345.98,-400.19l0 -153.46 -908.67 0 0 553.64z"/>
     <ellipse class="fil3 str0" cx="4395.54" cy="3247.34" rx="185.8" ry="161.71"/>
     <path class="fil2" d="M4081.88 3565.54l562.69 0c225.67,0 345.98,-144.02 345.98,-400.19l0 -153.46 -908.67 0 0 553.64z"/>
     <ellipse class="fil3 str0" cx="4395.54" cy="3247.34" rx="185.8" ry="161.71"/>
     <path class="fil4" d="M4990.55 2659.58l-562.69 0c-225.67,0 -345.98,144.02 -345.98,400.19l0 153.46 908.67 0 0 -553.64z"/>
     <path class="fil2" d="M2946.3 3565.54l562.69 0c225.67,0 345.98,-144.02 345.98,-400.19l0 -153.46 -908.68 0 0 553.64z"/>
     <ellipse class="fil3" cx="3541.33" cy="3247.34" rx="185.8" ry="161.71"/>
     <path class="fil4" d="M2946.32 2626.77l562.69 0c225.67,0 345.99,144.02 345.99,400.19l0 153.45 -908.68 0 0 -553.64z"/>
     <path class="fil5" d="M3953.46 3286.57c598.76,790.27 -578.28,774.78 0,0z"/>
     <g>
      <path class="fil6 str1" d="M4120.36 4272.4c96.16,-257.72 217.5,-348.07 373.8,-206.24"/>
     </g>
    </g>
   </g>
   <path class="fil6" d="M3117.07 1734.37c230.83,946.74 1486.96,693.27 2907.94,701.16 546.15,55.96 782.31,641.8 0,742.41l0 556.83c123.73,1365.23 -1253.85,1177.12 -2907.94,1177.12l0 -3177.51z"/>
   <path class="fil4" d="M3543.44 4930.87l958.93 0 0 4712.25c0,599.54 -958.93,617.07 -958.93,0l0 -4712.25z"/>
   <path class="fil7" d="M3504.47 4930.87l948.65 0 0 824.89c350.59,333.4 1505.43,1398.89 154.66,1608.55l-1031.13 185.6c-951.51,93.65 -928.52,-740.22 -72.18,-1752.9l0 -866.14z"/>
   <path class="fil8" d="M3598.33 6991.84l-199.77 -157.58c-75.86,-141.35 -23.75,-261.93 107.35,-333.75 107.35,-58.79 333.76,-52.73 414.13,128.2 18.72,42.15 16.7,95.27 13.46,155.57 -14.59,271.17 -12,171.83 -335.18,207.56z"/>
   <path class="fil8" d="M4203.66 6558.38c-74.22,-17.15 22.06,-167.74 110.39,-204.8 136.93,-57.48 325.3,-38.85 396.09,147.53 48.11,126.7 -137.49,345.5 -172.14,296.07l-135.23 -192.83 -199.11 -45.96z"/>
  </g>
 </g>
</svg>
