<?xml version="1.0" encoding="UTF-8"?>
<!DOCTYPE svg PUBLIC "-//W3C//DTD SVG 1.1//EN" "http://www.w3.org/Graphics/SVG/1.1/DTD/svg11.dtd">
<!-- Creator: CorelDRAW 2020 (64-Bit) -->
<svg xmlns="http://www.w3.org/2000/svg" xml:space="preserve" width="8.26772in" height="11.6929in" version="1.1" style="shape-rendering:geometricPrecision; text-rendering:geometricPrecision; image-rendering:optimizeQuality; fill-rule:evenodd; clip-rule:evenodd"
viewBox="0 0 8267.72 11692.91"
 xmlns:xlink="http://www.w3.org/1999/xlink"
 xmlns:xodm="http://www.corel.com/coreldraw/odm/2003">
 <defs>
  <style type="text/css">
   <![CDATA[
    .str0 {stroke:#EE9583;stroke-width:149.56;stroke-linecap:round;stroke-linejoin:round;stroke-miterlimit:2.61313}
    .fil6 {fill:none}
    .fil2 {fill:#FEFEFE}
    .fil3 {fill:#373435}
    .fil8 {fill:#744009}
    .fil10 {fill:#C86A03}
    .fil12 {fill:#C86A03}
    .fil9 {fill:#ECE2DA}
    .fil5 {fill:#EE9583}
    .fil4 {fill:#EE9583}
    .fil7 {fill:#F6F9F8}
    .fil11 {fill:#FFC272}
    .fil0 {fill:#FFC272}
    .fil1 {fill:#FFC6B7}
   ]]>
  </style>
    <clipPath id="id0">
     <path d="M5096.37 4460.79l-1983.86 0c-2359.55,-609.89 -1397.01,-2748.15 -322.47,-2895.17l3301.17 0 0 1380.76c-2.97,824.3 -318.85,1344.4 -994.84,1514.41z"/>
    </clipPath>
 </defs>
 <g id="Layer_x0020_1">
  <metadata id="CorelCorpID_0Corel-Layer"/>
  <g id="_2715438047424">
   <path class="fil0" d="M1667.02 7412.7c-249.88,-39.59 -329.93,-249.03 -271.37,-597.08l271.37 0 0 597.08z"/>
   <rect class="fil1" x="2523.72" y="4460.79" width="2453.6" height="2012.11"/>
   <path class="fil1" d="M5096.37 4460.79l-1983.86 0c-2359.55,-609.89 -1397.01,-2748.15 -322.47,-2895.17l3301.17 0 0 1380.76c-2.97,824.3 -318.85,1344.4 -994.84,1514.41z"/>
   <g style="clip-path:url(#id0)">
    <g>
     <ellipse class="fil2" cx="3358.09" cy="2884.15" rx="452.16" ry="402.2"/>
     <ellipse class="fil3" cx="3463.39" cy="2871.02" rx="177.89" ry="162.1"/>
     <path class="fil4" d="M2909.43 2802.67l890.3 0c111.28,-1049.21 -997.64,-1061.59 -890.3,0z"/>
     <ellipse class="fil2" cx="4493.06" cy="2988.46" rx="452.16" ry="402.2"/>
     <ellipse class="fil3" cx="4338.88" cy="2975.33" rx="177.89" ry="162.1"/>
     <path class="fil4" d="M4044.4 2906.97l890.3 0c111.28,-1049.21 -997.64,-1061.59 -890.3,0z"/>
     <path class="fil5" d="M3876.43 2945.87c-651.31,859.61 629.02,842.76 0,0z"/>
     <g>
      <path class="fil6 str0" d="M4521.43 3652.02c-122.13,175.19 -317.21,196.35 -543.29,150.73"/>
     </g>
    </g>
   </g>
   <path class="fil6" d="M5096.37 4460.79l-1983.86 0c-2359.55,-609.89 -1397.01,-2748.15 -322.47,-2895.17l3301.17 0 0 1380.76c-2.97,824.3 -318.85,1344.4 -994.84,1514.41z"/>
   <ellipse class="fil1" cx="6151.38" cy="3314.4" rx="410.1" ry="431.1"/>
   <ellipse class="fil1" cx="1558.52" cy="2836.45" rx="410.1" ry="345.72"/>
   <path class="fil7" d="M2660.09 5249.42c282.6,670.76 690.81,827.4 1272.46,273.72l-10.64 1615.5 -967.35 0c-23.15,-40.08 -532.37,-110.47 -623.94,-452.17l329.47 -1437.05z"/>
   <path class="fil8" d="M1819.1 6605.82l3666.27 0 -311.02 3103.78c-429.62,484.75 -1758.93,464.31 -1826.42,-146.87 -448.42,72.91 -1070.68,214.57 -1571.43,-476.71l42.6 -2480.2z"/>
   <path class="fil9" d="M2863.71 1565.62c0,0 -1016.46,158.63 -1142.64,1226.69 1131.05,0 1072.53,-488.44 1142.64,-750.07l0 -476.61z"/>
   <path class="fil3" d="M2893.72 1460.26c207.83,253.78 1420.86,297.67 1570.27,266.39 70.52,1207.46 692.08,1207.52 1052.9,1253.24 1886.78,-531.46 676.33,-2466.97 -264.31,-2486.9l-1250.3 -26.5c-852.54,-18.06 -1136.58,796.83 -1108.56,993.76z"/>
   <path class="fil10" d="M4977.31 4460.79c-1082.91,56.63 -1542.65,2041.45 -1465.05,5418.76 1174.56,166.19 1988.54,-61.04 2340.6,-792.13l17.3 -1747.8c494.48,-146.61 716.2,-485.72 687.21,-996.86 -178.24,-651.2 -847.47,-1279.27 -1580.06,-1881.97z"/>
   <path class="fil11" d="M5893.16 7505.85c-701.39,711.52 -1403.5,-520.31 -771.12,-1002.45 -246.55,495.3 -11.07,1185.2 748.12,836.21 73.53,-33.81 -10.6,137.92 23,166.24z"/>
   <path class="fil12" d="M2272.01 9402.34c-313.53,-91.35 -552.28,-286 -669.57,-648.44l80.14 -1664.69 -286.93 -273.59c68.72,-985.05 500.75,-1918.15 1298.45,-2491.96l450.56 59.47c-1104.04,1518.85 -581.76,3346.15 -872.65,5019.22z"/>
  </g>
 </g>
</svg>
